<svg width="199" height="194" viewBox="0 0 199 194" fill="none" xmlns="http://www.w3.org/2000/svg">
<path d="M99.5 0C86.4335 0 73.4949 2.57127 61.423 7.567C49.3511 12.5627 38.3823 19.8851 29.1429 29.116C10.483 47.7586 0 73.0435 0 99.4082C0 143.347 28.5565 180.625 68.058 193.846C73.033 194.641 74.625 191.56 74.625 188.876V172.076C47.0635 178.04 41.193 158.755 41.193 158.755C36.616 147.224 30.1485 144.142 30.1485 144.142C21.094 137.979 30.845 138.177 30.845 138.177C40.795 138.873 46.0685 148.416 46.0685 148.416C54.725 163.527 69.3515 159.053 75.023 156.667C75.9185 150.206 78.5055 145.832 81.2915 143.347C59.2025 140.861 36.019 132.312 36.019 94.4378C36.019 83.4035 39.8 74.5562 46.2675 67.4982C45.2725 65.013 41.79 54.6745 47.2625 41.2544C47.2625 41.2544 55.6205 38.5704 74.625 51.394C82.4855 49.2071 91.0425 48.1136 99.5 48.1136C107.958 48.1136 116.515 49.2071 124.375 51.394C143.38 38.5704 151.738 41.2544 151.738 41.2544C157.21 54.6745 153.728 65.013 152.733 67.4982C159.2 74.5562 162.981 83.4035 162.981 94.4378C162.981 132.412 139.698 140.762 117.51 143.247C121.092 146.329 124.375 152.393 124.375 161.638V188.876C124.375 191.56 125.967 194.741 131.042 193.846C170.543 180.525 199 143.347 199 99.4082C199 86.3537 196.426 73.4271 191.426 61.3663C186.426 49.3056 179.097 38.3469 169.857 29.116C160.618 19.8851 149.649 12.5627 137.577 7.567C125.505 2.57127 112.567 0 99.5 0Z" fill="#00FF48"/>
</svg>
