<svg width="195" height="195" viewBox="0 0 195 195" fill="none" xmlns="http://www.w3.org/2000/svg">
<path d="M56.3083 0H137.858C168.925 0 194.167 25.2417 194.167 56.3083V137.858C194.167 152.792 188.234 167.114 177.674 177.674C167.114 188.234 152.792 194.167 137.858 194.167H56.3083C25.2417 194.167 0 168.925 0 137.858V56.3083C0 41.3744 5.93247 27.0522 16.4923 16.4923C27.0522 5.93247 41.3744 0 56.3083 0ZM54.3667 19.4167C45.0973 19.4167 36.2077 23.0989 29.6533 29.6533C23.0989 36.2077 19.4167 45.0973 19.4167 54.3667V139.8C19.4167 159.12 35.0471 174.75 54.3667 174.75H139.8C149.069 174.75 157.959 171.068 164.513 164.513C171.068 157.959 174.75 149.069 174.75 139.8V54.3667C174.75 35.0471 159.12 19.4167 139.8 19.4167H54.3667ZM148.052 33.9792C151.271 33.9792 154.357 35.2577 156.633 37.5335C158.909 39.8094 160.188 42.8961 160.188 46.1146C160.188 49.3331 158.909 52.4198 156.633 54.6956C154.357 56.9715 151.271 58.25 148.052 58.25C144.834 58.25 141.747 56.9715 139.471 54.6956C137.195 52.4198 135.917 49.3331 135.917 46.1146C135.917 42.8961 137.195 39.8094 139.471 37.5335C141.747 35.2577 144.834 33.9792 148.052 33.9792ZM97.0833 48.5417C109.957 48.5417 122.304 53.6559 131.407 62.7592C140.511 71.8625 145.625 84.2093 145.625 97.0833C145.625 109.957 140.511 122.304 131.407 131.407C122.304 140.511 109.957 145.625 97.0833 145.625C84.2093 145.625 71.8625 140.511 62.7592 131.407C53.6559 122.304 48.5417 109.957 48.5417 97.0833C48.5417 84.2093 53.6559 71.8625 62.7592 62.7592C71.8625 53.6559 84.2093 48.5417 97.0833 48.5417ZM97.0833 67.9583C89.3589 67.9583 81.9508 71.0269 76.4888 76.4888C71.0269 81.9508 67.9583 89.3589 67.9583 97.0833C67.9583 104.808 71.0269 112.216 76.4888 117.678C81.9508 123.14 89.3589 126.208 97.0833 126.208C104.808 126.208 112.216 123.14 117.678 117.678C123.14 112.216 126.208 104.808 126.208 97.0833C126.208 89.3589 123.14 81.9508 117.678 76.4888C112.216 71.0269 104.808 67.9583 97.0833 67.9583Z" fill="#00FF48"/>
</svg>
