<svg width="195" height="194" viewBox="0 0 195 194" fill="none" xmlns="http://www.w3.org/2000/svg">
<path d="M173.333 0C179.08 0 184.591 2.27102 188.654 6.31347C192.717 10.3559 195 15.8387 195 21.5556V172.444C195 178.161 192.717 183.644 188.654 187.687C184.591 191.729 179.08 194 173.333 194H21.6667C15.9203 194 10.4093 191.729 6.34602 187.687C2.28273 183.644 0 178.161 0 172.444V21.5556C0 15.8387 2.28273 10.3559 6.34602 6.31347C10.4093 2.27102 15.9203 0 21.6667 0H173.333ZM167.917 167.056V109.933C167.917 100.615 164.196 91.6779 157.573 85.0887C150.949 78.4995 141.967 74.7978 132.6 74.7978C123.392 74.7978 112.667 80.4022 107.467 88.8089V76.8456H77.2417V167.056H107.467V113.921C107.467 105.622 114.183 98.8322 122.525 98.8322C126.547 98.8322 130.405 100.422 133.249 103.252C136.094 106.081 137.692 109.919 137.692 113.921V167.056H167.917ZM42.0333 59.9244C46.8603 59.9244 51.4895 58.0168 54.9027 54.6211C58.3158 51.2255 60.2333 46.62 60.2333 41.8178C60.2333 31.7944 52.1083 23.6033 42.0333 23.6033C37.1777 23.6033 32.5209 25.5223 29.0874 28.9382C25.6539 32.3541 23.725 36.987 23.725 41.8178C23.725 51.8411 31.9583 59.9244 42.0333 59.9244ZM57.0917 167.056V76.8456H27.0833V167.056H57.0917Z" fill="#00FF48"/>
</svg>
